<svg xmlns="http://www.w3.org/2000/svg" version="1.1" xmlns:xlink="http://www.w3.org/1999/xlink" width="512" height="512" x="0" y="0" viewBox="0 0 511 512" style="enable-background:new 0 0 512 512" xml:space="preserve" class=""><g><linearGradient id="a" x1=".5" x2="449.5" y1="256" y2="256" gradientUnits="userSpaceOnUse"><stop offset="0" stop-color="#80d8ff"></stop><stop offset="1" stop-color="#ea80fc"></stop></linearGradient><path fill="url(#a)" d="m439.496 120.676-204.5-118a20.016 20.016 0 0 0-19.992 0l-204.5 118A20 20 0 0 0 .5 138v236a20 20 0 0 0 10.004 17.324l204.5 118a20.016 20.016 0 0 0 19.992 0l204.5-118A20 20 0 0 0 449.5 374V138a20 20 0 0 0-10.004-17.324zM409.5 362.449 225 468.91 40.5 362.45v-212.9L225 43.09l184.5 106.46zM144.016 219.746 107.758 256l36.258 36.254c7.808 7.812 7.808 20.473 0 28.285-7.813 7.809-20.477 7.809-28.286 0l-50.398-50.398c-7.809-7.809-7.809-20.473 0-28.282l50.398-50.398c7.81-7.809 20.473-7.809 28.286 0 7.808 7.812 7.808 20.473 0 28.285zm161.968 72.508L342.242 256l-36.258-36.254c-7.808-7.812-7.808-20.473 0-28.285 7.813-7.809 20.477-7.809 28.286 0l50.398 50.398c7.809 7.809 7.809 20.473 0 28.282l-50.398 50.398c-7.81 7.809-20.473 7.809-28.286 0-7.808-7.812-7.808-20.473 0-28.285zM172.176 316.93l69.87-139.746c4.942-9.88 16.95-13.887 26.833-8.946 9.883 4.942 13.887 16.953 8.945 26.832l-69.87 139.75c-4.923 9.84-16.915 13.903-26.837 8.942-9.879-4.938-13.883-16.953-8.941-26.832zm0 0" opacity="1" data-original="url(#a)" class=""></path></g></svg>